<mxfile host="app.diagrams.net" modified="2021-08-29T10:05:29.234Z" agent="5.0 (Macintosh; Intel Mac OS X 10_15_7) AppleWebKit/537.36 (KHTML, like Gecko) Chrome/81.0.4044.138 Safari/537.36" etag="aTJx1YtYJeDM1b9eZFf_" version="14.9.3" type="github">
  <diagram id="mwJj6uyiTlnkspCEbciv" name="第 1 页">
    <mxGraphModel dx="946" dy="614" grid="1" gridSize="10" guides="1" tooltips="1" connect="1" arrows="1" fold="1" page="1" pageScale="1" pageWidth="1654" pageHeight="2336" math="0" shadow="0">
      <root>
        <mxCell id="0" />
        <mxCell id="1" parent="0" />
        <mxCell id="S_MkskMlUDfqH5YnIYUu-64" value="&lt;font style=&quot;font-size: 16px&quot;&gt;发布端&lt;/font&gt;" style="rounded=1;whiteSpace=wrap;html=1;" vertex="1" parent="1">
          <mxGeometry x="240" y="140" width="120" height="40" as="geometry" />
        </mxCell>
        <mxCell id="S_MkskMlUDfqH5YnIYUu-65" value="" style="strokeWidth=2;html=1;shape=mxgraph.flowchart.annotation_2;align=left;labelPosition=right;pointerEvents=1;" vertex="1" parent="1">
          <mxGeometry x="360" y="110" width="100" height="100" as="geometry" />
        </mxCell>
        <mxCell id="S_MkskMlUDfqH5YnIYUu-69" value="" style="edgeStyle=orthogonalEdgeStyle;rounded=0;jumpSize=6;orthogonalLoop=1;jettySize=auto;html=1;" edge="1" parent="1" source="S_MkskMlUDfqH5YnIYUu-66">
          <mxGeometry relative="1" as="geometry">
            <mxPoint x="710" y="110" as="targetPoint" />
          </mxGeometry>
        </mxCell>
        <mxCell id="S_MkskMlUDfqH5YnIYUu-66" value="&lt;font style=&quot;font-size: 15px&quot;&gt;sell-container&lt;/font&gt;" style="rounded=1;whiteSpace=wrap;html=1;" vertex="1" parent="1">
          <mxGeometry x="460" y="90" width="150" height="40" as="geometry" />
        </mxCell>
        <mxCell id="S_MkskMlUDfqH5YnIYUu-72" value="" style="edgeStyle=orthogonalEdgeStyle;rounded=0;jumpSize=6;orthogonalLoop=1;jettySize=auto;html=1;entryX=0;entryY=0.5;entryDx=0;entryDy=0;" edge="1" parent="1" source="S_MkskMlUDfqH5YnIYUu-67" target="S_MkskMlUDfqH5YnIYUu-78">
          <mxGeometry relative="1" as="geometry">
            <mxPoint x="670" y="210" as="targetPoint" />
          </mxGeometry>
        </mxCell>
        <mxCell id="S_MkskMlUDfqH5YnIYUu-67" value="&lt;font style=&quot;font-size: 15px&quot;&gt;fliggy-travel-sell&lt;/font&gt;" style="rounded=1;whiteSpace=wrap;html=1;" vertex="1" parent="1">
          <mxGeometry x="460" y="190" width="150" height="40" as="geometry" />
        </mxCell>
        <mxCell id="S_MkskMlUDfqH5YnIYUu-70" value="&lt;font style=&quot;font-size: 14px&quot;&gt;5290行&lt;/font&gt;" style="rounded=1;whiteSpace=wrap;html=1;" vertex="1" parent="1">
          <mxGeometry x="710" y="90" width="90" height="40" as="geometry" />
        </mxCell>
        <mxCell id="S_MkskMlUDfqH5YnIYUu-73" value="&lt;font style=&quot;font-size: 16px&quot;&gt;系统&lt;/font&gt;" style="text;html=1;strokeColor=none;fillColor=none;align=center;verticalAlign=middle;whiteSpace=wrap;rounded=0;" vertex="1" parent="1">
          <mxGeometry x="280" y="50" width="40" height="20" as="geometry" />
        </mxCell>
        <mxCell id="S_MkskMlUDfqH5YnIYUu-74" value="&lt;font style=&quot;font-size: 16px&quot;&gt;代码仓库&lt;/font&gt;" style="text;html=1;align=center;verticalAlign=middle;resizable=0;points=[];autosize=1;strokeColor=none;" vertex="1" parent="1">
          <mxGeometry x="490" y="50" width="80" height="20" as="geometry" />
        </mxCell>
        <mxCell id="S_MkskMlUDfqH5YnIYUu-75" value="&lt;font style=&quot;font-size: 16px&quot;&gt;代码行数&lt;/font&gt;" style="text;html=1;align=center;verticalAlign=middle;resizable=0;points=[];autosize=1;strokeColor=none;" vertex="1" parent="1">
          <mxGeometry x="715" y="50" width="80" height="20" as="geometry" />
        </mxCell>
        <mxCell id="S_MkskMlUDfqH5YnIYUu-78" value="&lt;font style=&quot;font-size: 14px&quot;&gt;313行&lt;/font&gt;" style="rounded=1;whiteSpace=wrap;html=1;" vertex="1" parent="1">
          <mxGeometry x="710" y="190" width="90" height="40" as="geometry" />
        </mxCell>
        <mxCell id="S_MkskMlUDfqH5YnIYUu-86" value="&lt;font style=&quot;font-size: 16px&quot;&gt;度假管理后台&lt;/font&gt;" style="rounded=1;whiteSpace=wrap;html=1;" vertex="1" parent="1">
          <mxGeometry x="240" y="260" width="120" height="40" as="geometry" />
        </mxCell>
        <mxCell id="S_MkskMlUDfqH5YnIYUu-87" value="" style="endArrow=classic;html=1;entryX=0;entryY=0.5;entryDx=0;entryDy=0;" edge="1" parent="1" target="S_MkskMlUDfqH5YnIYUu-88">
          <mxGeometry width="50" height="50" relative="1" as="geometry">
            <mxPoint x="360" y="280" as="sourcePoint" />
            <mxPoint x="410" y="280" as="targetPoint" />
          </mxGeometry>
        </mxCell>
        <mxCell id="S_MkskMlUDfqH5YnIYUu-88" value="&lt;font style=&quot;font-size: 15px&quot;&gt;fliggy-travel-qiankun&lt;/font&gt;" style="rounded=1;whiteSpace=wrap;html=1;" vertex="1" parent="1">
          <mxGeometry x="460" y="260" width="150" height="40" as="geometry" />
        </mxCell>
        <mxCell id="S_MkskMlUDfqH5YnIYUu-89" value="" style="endArrow=classic;html=1;exitX=1;exitY=0.5;exitDx=0;exitDy=0;" edge="1" parent="1" source="S_MkskMlUDfqH5YnIYUu-88">
          <mxGeometry width="50" height="50" relative="1" as="geometry">
            <mxPoint x="650" y="279.5" as="sourcePoint" />
            <mxPoint x="710" y="279.5" as="targetPoint" />
          </mxGeometry>
        </mxCell>
        <mxCell id="S_MkskMlUDfqH5YnIYUu-90" value="&lt;font style=&quot;font-size: 14px&quot;&gt;3956行&lt;/font&gt;" style="rounded=1;whiteSpace=wrap;html=1;" vertex="1" parent="1">
          <mxGeometry x="710" y="260" width="90" height="40" as="geometry" />
        </mxCell>
        <mxCell id="S_MkskMlUDfqH5YnIYUu-96" value="" style="edgeStyle=orthogonalEdgeStyle;rounded=0;jumpSize=6;orthogonalLoop=1;jettySize=auto;html=1;" edge="1" parent="1" source="S_MkskMlUDfqH5YnIYUu-93">
          <mxGeometry relative="1" as="geometry">
            <mxPoint x="460" y="350" as="targetPoint" />
          </mxGeometry>
        </mxCell>
        <mxCell id="S_MkskMlUDfqH5YnIYUu-93" value="&lt;font style=&quot;font-size: 16px&quot;&gt;行程编辑器&lt;/font&gt;" style="rounded=1;whiteSpace=wrap;html=1;" vertex="1" parent="1">
          <mxGeometry x="240" y="330" width="120" height="40" as="geometry" />
        </mxCell>
        <mxCell id="S_MkskMlUDfqH5YnIYUu-99" value="" style="edgeStyle=orthogonalEdgeStyle;rounded=0;jumpSize=6;orthogonalLoop=1;jettySize=auto;html=1;" edge="1" parent="1" source="S_MkskMlUDfqH5YnIYUu-97">
          <mxGeometry relative="1" as="geometry">
            <mxPoint x="710" y="350" as="targetPoint" />
          </mxGeometry>
        </mxCell>
        <mxCell id="S_MkskMlUDfqH5YnIYUu-97" value="&lt;font style=&quot;font-size: 15px&quot;&gt;fliggy-ice-material&lt;/font&gt;" style="rounded=1;whiteSpace=wrap;html=1;" vertex="1" parent="1">
          <mxGeometry x="460" y="330" width="150" height="40" as="geometry" />
        </mxCell>
        <mxCell id="S_MkskMlUDfqH5YnIYUu-101" value="&lt;font style=&quot;font-size: 14px&quot;&gt;406行&lt;/font&gt;" style="rounded=1;whiteSpace=wrap;html=1;" vertex="1" parent="1">
          <mxGeometry x="710" y="330" width="90" height="40" as="geometry" />
        </mxCell>
        <mxCell id="S_MkskMlUDfqH5YnIYUu-105" value="" style="edgeStyle=orthogonalEdgeStyle;rounded=0;jumpSize=6;orthogonalLoop=1;jettySize=auto;html=1;" edge="1" parent="1" source="S_MkskMlUDfqH5YnIYUu-102">
          <mxGeometry relative="1" as="geometry">
            <mxPoint x="460" y="420" as="targetPoint" />
          </mxGeometry>
        </mxCell>
        <mxCell id="S_MkskMlUDfqH5YnIYUu-102" value="&lt;font style=&quot;font-size: 16px&quot;&gt;景区ERP&lt;/font&gt;" style="rounded=1;whiteSpace=wrap;html=1;" vertex="1" parent="1">
          <mxGeometry x="240" y="400" width="120" height="40" as="geometry" />
        </mxCell>
        <mxCell id="S_MkskMlUDfqH5YnIYUu-108" value="" style="edgeStyle=orthogonalEdgeStyle;rounded=0;jumpSize=6;orthogonalLoop=1;jettySize=auto;html=1;" edge="1" parent="1" source="S_MkskMlUDfqH5YnIYUu-106" target="S_MkskMlUDfqH5YnIYUu-107">
          <mxGeometry relative="1" as="geometry" />
        </mxCell>
        <mxCell id="S_MkskMlUDfqH5YnIYUu-106" value="&lt;font style=&quot;font-size: 15px&quot;&gt;scenic-supply-chain&lt;/font&gt;" style="rounded=1;whiteSpace=wrap;html=1;" vertex="1" parent="1">
          <mxGeometry x="460" y="400" width="150" height="40" as="geometry" />
        </mxCell>
        <mxCell id="S_MkskMlUDfqH5YnIYUu-107" value="&lt;font style=&quot;font-size: 14px&quot;&gt;1075行&lt;/font&gt;" style="rounded=1;whiteSpace=wrap;html=1;" vertex="1" parent="1">
          <mxGeometry x="710" y="400" width="90" height="40" as="geometry" />
        </mxCell>
        <mxCell id="S_MkskMlUDfqH5YnIYUu-109" value="" style="edgeStyle=orthogonalEdgeStyle;rounded=0;jumpSize=6;orthogonalLoop=1;jettySize=auto;html=1;" edge="1" parent="1" source="S_MkskMlUDfqH5YnIYUu-110">
          <mxGeometry relative="1" as="geometry">
            <mxPoint x="460" y="490" as="targetPoint" />
          </mxGeometry>
        </mxCell>
        <mxCell id="S_MkskMlUDfqH5YnIYUu-110" value="&lt;span style=&quot;font-size: 16px&quot;&gt;邮轮标准库&lt;/span&gt;" style="rounded=1;whiteSpace=wrap;html=1;" vertex="1" parent="1">
          <mxGeometry x="240" y="470" width="120" height="40" as="geometry" />
        </mxCell>
        <mxCell id="S_MkskMlUDfqH5YnIYUu-111" value="" style="edgeStyle=orthogonalEdgeStyle;rounded=0;jumpSize=6;orthogonalLoop=1;jettySize=auto;html=1;" edge="1" parent="1" source="S_MkskMlUDfqH5YnIYUu-112" target="S_MkskMlUDfqH5YnIYUu-113">
          <mxGeometry relative="1" as="geometry" />
        </mxCell>
        <mxCell id="S_MkskMlUDfqH5YnIYUu-112" value="&lt;font style=&quot;font-size: 15px&quot;&gt;cruise-fe&lt;/font&gt;" style="rounded=1;whiteSpace=wrap;html=1;" vertex="1" parent="1">
          <mxGeometry x="460" y="470" width="150" height="40" as="geometry" />
        </mxCell>
        <mxCell id="S_MkskMlUDfqH5YnIYUu-113" value="&lt;font style=&quot;font-size: 14px&quot;&gt;588行&lt;/font&gt;" style="rounded=1;whiteSpace=wrap;html=1;" vertex="1" parent="1">
          <mxGeometry x="710" y="470" width="90" height="40" as="geometry" />
        </mxCell>
      </root>
    </mxGraphModel>
  </diagram>
</mxfile>
